<mxfile host="app.diagrams.net" modified="2021-08-03T14:33:34.316Z" agent="5.0 (Windows NT 10.0; Win64; x64) AppleWebKit/537.36 (KHTML, like Gecko) Chrome/92.0.4515.107 Safari/537.36" etag="zNvf-bNA1tuNKYgID-ie" version="14.9.3" type="github">
  <diagram id="Tc_JKgGjWMZszq28qPnj" name="MasterNode">
    <mxGraphModel dx="1422" dy="762" grid="1" gridSize="10" guides="1" tooltips="1" connect="1" arrows="1" fold="1" page="1" pageScale="1" pageWidth="827" pageHeight="1169" math="0" shadow="0">
      <root>
        <mxCell id="0" />
        <mxCell id="1" parent="0" />
        <mxCell id="OMQ42-OOQIEUGMwXQkZr-6" value="" style="edgeStyle=orthogonalEdgeStyle;rounded=0;orthogonalLoop=1;jettySize=auto;html=1;" edge="1" parent="1" source="OMQ42-OOQIEUGMwXQkZr-1" target="OMQ42-OOQIEUGMwXQkZr-5">
          <mxGeometry relative="1" as="geometry" />
        </mxCell>
        <mxCell id="OMQ42-OOQIEUGMwXQkZr-8" value="" style="edgeStyle=orthogonalEdgeStyle;rounded=0;orthogonalLoop=1;jettySize=auto;html=1;" edge="1" parent="1" source="OMQ42-OOQIEUGMwXQkZr-1" target="OMQ42-OOQIEUGMwXQkZr-7">
          <mxGeometry relative="1" as="geometry" />
        </mxCell>
        <mxCell id="OMQ42-OOQIEUGMwXQkZr-1" value="start_link" style="rounded=1;whiteSpace=wrap;html=1;" vertex="1" parent="1">
          <mxGeometry x="200" y="40" width="150" height="90" as="geometry" />
        </mxCell>
        <mxCell id="OMQ42-OOQIEUGMwXQkZr-2" value="" style="rounded=1;whiteSpace=wrap;html=1;" vertex="1" parent="1">
          <mxGeometry x="510" y="500" width="120" height="60" as="geometry" />
        </mxCell>
        <mxCell id="OMQ42-OOQIEUGMwXQkZr-3" value="" style="rounded=1;whiteSpace=wrap;html=1;" vertex="1" parent="1">
          <mxGeometry x="200" y="360" width="120" height="60" as="geometry" />
        </mxCell>
        <mxCell id="OMQ42-OOQIEUGMwXQkZr-4" value="" style="rounded=1;whiteSpace=wrap;html=1;" vertex="1" parent="1">
          <mxGeometry x="210" y="460" width="120" height="60" as="geometry" />
        </mxCell>
        <mxCell id="OMQ42-OOQIEUGMwXQkZr-5" value="&lt;span&gt;spawn gen_server&lt;br&gt;&lt;br&gt;&lt;/span&gt;" style="ellipse;shape=cloud;whiteSpace=wrap;html=1;rounded=1;" vertex="1" parent="1">
          <mxGeometry x="445" y="27.5" width="335" height="115" as="geometry" />
        </mxCell>
        <mxCell id="OMQ42-OOQIEUGMwXQkZr-7" value="init" style="rounded=1;whiteSpace=wrap;html=1;" vertex="1" parent="1">
          <mxGeometry x="200" y="210" width="150" height="90" as="geometry" />
        </mxCell>
      </root>
    </mxGraphModel>
  </diagram>
</mxfile>
